<svg width="11" height="11" viewBox="0 0 11 11" fill="none" xmlns="http://www.w3.org/2000/svg">
<path d="M5.6405 0L4.8125 0.0309999C2.1405 0.1265 0 2.32 0 5.0155C0 7.771 2.244 10.0155 5 10.0155C7.695 10.0155 9.8885 7.8745 9.9845 5.203L10.0155 4.3905L9.2815 4.734C8.8807 4.92237 8.44285 5.01872 8 5.016C6.338 5.016 5 3.678 5 2.016C5 1.559 5.1115 1.141 5.297 0.7505L5.6405 0ZM4.1875 1.1875C4.125 1.4645 4 1.7185 4 2.0155C4 4.2185 5.797 6.0155 8 6.0155C8.3025 6.0155 8.5605 5.8925 8.844 5.828C8.463 7.6405 6.9295 9.0155 5 9.0155C2.785 9.0155 1 7.2305 1 5.0155C1 3.0895 2.379 1.5725 4.1875 1.1875Z" fill="#BDBDBD"/>
</svg>
