<svg width="14" height="14" viewBox="0 0 14 14" fill="none" xmlns="http://www.w3.org/2000/svg">
<path d="M6.5 0.5V3H7.5V0.5H6.5ZM2.75 2.047L2.047 2.75L3.8125 4.5315L4.5315 3.8125L2.75 2.047ZM11.25 2.047L9.4685 3.8125L10.1875 4.5315L11.953 2.75L11.25 2.047ZM7 3.5C5.0725 3.5 3.5 5.0725 3.5 7C3.5 8.9275 5.0725 10.5 7 10.5C8.9275 10.5 10.5 8.9275 10.5 7C10.5 5.0725 8.9275 3.5 7 3.5ZM7 4.5C8.3865 4.5 9.5 5.6135 9.5 7C9.5 8.3865 8.3865 9.5 7 9.5C5.6135 9.5 4.5 8.3865 4.5 7C4.5 5.6135 5.6135 4.5 7 4.5ZM0.5 6.5V7.5H3V6.5H0.5ZM11 6.5V7.5H13.5V6.5H11ZM3.8125 9.469L2.047 11.25L2.75 11.953L4.5315 10.1875L3.8125 9.469ZM10.1875 9.469L9.4685 10.1875L11.25 11.953L11.953 11.25L10.1875 9.469ZM6.5 11V13.5H7.5V11H6.5Z" fill="#2F80ED"/>
</svg>
